/* XPM */
static char *menu_active[] = {
/* columns rows colors chars-per-pixel */
"28 32 3 1 ",
"  c #282a36",
". c #2D2E37",
"X c #B9BBBF",
/* pixels */
"............................",
"                            ",
"                            ",
"                            ",
"                            ",
"                            ",
"                            ",
"                            ",
"                            ",
"                            ",
"                            ",
"                            ",
"          XXXXXXXX          ",
"          XXXXXXXX          ",
"                            ",
"          XXXXXXXX          ",
"          XXXXXXXX          ",
"                            ",
"          XXXXXXXX          ",
"          XXXXXXXX          ",
"                            ",
"                            ",
"                            ",
"                            ",
"                            ",
"                            ",
"                            ",
"                            ",
"                            ",
"                            ",
"                            ",
"                            "
};
