/* XPM */
static char *menu_pressed[] = {
/* columns rows colors chars-per-pixel */
"28 32 4 1 ",
"  c #282a36",
". c #2D2E37",
"X c #BD93F9",
"o c #ECEFF1",
/* pixels */
"............................",
"                            ",
"                            ",
"                            ",
"                            ",
"                            ",
"                            ",
"                            ",
"                            ",
"                            ",
"                            ",
"                            ",
"          oooooooo          ",
"          oooooooo          ",
"                            ",
"          oooooooo          ",
"          oooooooo          ",
"                            ",
"          oooooooo          ",
"          oooooooo          ",
"                            ",
"                            ",
"                            ",
"                            ",
"                            ",
"                            ",
"                            ",
"  XXXXXXXXXXXXXXXXXXXXXXXX  ",
"  XXXXXXXXXXXXXXXXXXXXXXXX  ",
"                            ",
"                            ",
"                            "
};
